<svg 
 xmlns="http://www.w3.org/2000/svg"
 width="1em" height="1em" fill="currentColor" viewBox="0 0 42 42">
    <path d="m37.41382,36.61228c-3.20297,1.52492 -6.69069,-3.28712 -9.65235,-6.97903c-1.16954,-1.45687 -4.09742,-1.79536 -6.76147,-1.832c-2.66405,0.03664 -5.59193,0.37512 -6.76147,1.832c-2.96166,3.69191 -6.44938,8.50395 -9.65235,6.97903c-4.70069,-2.23852 -4.05238,-20.2828 0,-26.17136c4.05238,-5.88856 7.07195,-5.45935 9.65235,-5.23427c2.29565,0.20065 3.08393,5.23427 6.4349,5.23427c0.111,0 0.21718,0.05932 0.32657,0.08549c0.10939,-0.02617 0.21557,-0.08549 0.32657,-0.08549c3.35097,0 4.13925,-5.03362 6.4349,-5.23427c2.58039,-0.22507 5.59997,-0.65428 9.65235,5.23427c4.05238,5.88856 4.70069,23.93283 0,26.17136zm-25.02532,-24.18582c3.04853,0 5.51954,2.67995 5.51954,5.98626c0,3.30631 -2.471,5.98626 -5.51954,5.98626c-3.04853,0 -5.51954,-2.67995 -5.51954,-5.98626c0,-3.30631 2.471,-5.98626 5.51954,-5.98626zm0,2.20886c1.92403,0 3.48289,1.69067 3.48289,3.7774c0,2.08498 -1.55885,3.7774 -3.48289,3.7774c-1.92243,0 -3.48128,-1.69241 -3.48128,-3.7774c0,-2.08673 1.55885,-3.7774 3.48128,-3.7774zm21.62448,4.71259l-3.51828,0l0,3.81578c0,0.4833 -0.35875,0.87238 -0.80436,0.87238l-0.33944,0c-0.44401,0 -0.80436,-0.38908 -0.80436,-0.87238l0,-3.81578l-3.51667,0c-0.44562,0 -0.80436,-0.38908 -0.80436,-0.87063l0,-0.36989c0,-0.48155 0.35875,-0.87238 0.80436,-0.87238l3.51667,0l0,-3.81404c0,-0.4833 0.36035,-0.87238 0.80436,-0.87238l0.33944,0c0.44562,0 0.80436,0.38908 0.80436,0.87238l0,3.81404l3.51828,0c0.44562,0 0.80436,0.39083 0.80436,0.87238l0,0.36989c0,0.48155 -0.35875,0.87063 -0.80436,0.87063z"  fill-rule="evenodd"/>
</svg>
